<svg preserveAspectRatio="none" width="100%" height="100%" overflow="visible" style="display: block;" viewBox="0 0 18 18" fill="none" xmlns="http://www.w3.org/2000/svg">
<g id="location-home-solid">
<path id="Vector" d="M7.875 7.75004V6.26655L9 5.44604L10.125 6.26655V7.75004C10.125 7.79977 10.1052 7.84746 10.0701 7.88263C10.0349 7.91779 9.98723 7.93754 9.9375 7.93754H8.0625C8.01277 7.93754 7.96508 7.91779 7.92992 7.88263C7.89475 7.84746 7.875 7.79977 7.875 7.75004Z" fill="var(--fill-0, #7A8997)"/>
<path id="Vector_2" d="M4.60496 2.986C5.77667 1.83222 7.35553 1.18613 8.99996 1.1875C10.647 1.1875 12.228 1.83325 13.395 2.986C14.4517 4.0285 15.0022 5.1955 15.1477 6.4075C15.2925 7.609 15.0337 8.815 14.5402 9.946C13.5607 12.196 11.6137 14.242 9.74621 15.5733C9.52836 15.7286 9.26749 15.812 8.99996 15.812C8.73242 15.812 8.47155 15.7286 8.25371 15.5733C6.38621 14.242 4.43921 12.1953 3.45896 9.946C2.96621 8.815 2.70821 7.609 2.85221 6.40675C2.99771 5.1955 3.54821 4.02925 4.60496 2.986ZM9.33146 4.2955C9.23519 4.22528 9.11911 4.18744 8.99996 4.18744C8.8808 4.18744 8.76472 4.22528 8.66846 4.2955L6.98096 5.5255C6.90938 5.57772 6.85115 5.6461 6.81101 5.72508C6.77086 5.80406 6.74995 5.89141 6.74996 5.98V7.75C6.74996 8.4745 7.33796 9.0625 8.06246 9.0625H9.93746C10.2856 9.0625 10.6194 8.92422 10.8655 8.67808C11.1117 8.43194 11.25 8.0981 11.25 7.75V5.98C11.25 5.89141 11.229 5.80406 11.1889 5.72508C11.1488 5.6461 11.0905 5.57772 11.019 5.5255L9.33146 4.2955Z" fill="var(--fill-0, #7A8997)"/>
</g>
</svg>
