<svg preserveAspectRatio="none" width="100%" height="100%" overflow="visible" style="display: block;" viewBox="0 0 61 61" fill="none" xmlns="http://www.w3.org/2000/svg">
<g id="Group 340">
<circle id="Ellipse 58" cx="30.2274" cy="30.2274" r="30.2274" fill="var(--fill-0, #D9E9F8)" fill-opacity="0.8"/>
<path id="Vector" d="M48.117 26.0887C48.1178 25.5701 47.9855 25.0606 47.7336 24.6119C47.4817 24.1632 47.1192 23.7913 46.6829 23.5342L31.0932 13.9846C30.6439 13.714 30.1331 13.5715 29.6129 13.5715C29.0927 13.5715 28.5819 13.714 28.1326 13.9846L12.5198 23.5342C12.0883 23.7984 11.7309 24.1739 11.4827 24.6239C11.2344 25.0739 11.1039 25.5828 11.1039 26.1006C11.1039 26.6184 11.2344 27.1273 11.4827 27.5773C11.7309 28.0272 12.0883 28.4028 12.5198 28.667L16.9607 31.3409V38.0495C16.9634 38.5738 17.0967 39.0885 17.3479 39.5443C17.599 40 17.9596 40.3814 18.3948 40.6517L28.2251 46.5008C28.664 46.7517 29.1575 46.8832 29.6592 46.8832C30.1608 46.8832 30.6543 46.7517 31.0932 46.5008L40.9235 40.6517C41.3588 40.3814 41.7193 40 41.9704 39.5443C42.2216 39.0885 42.3549 38.5738 42.3576 38.0495V31.2693L45.2257 29.5265V36.0202H48.117V26.0887ZM39.4894 38.0256L29.6129 43.8986L19.852 38.0495V33.1076L28.1326 38.1927C28.5834 38.4586 29.0937 38.5985 29.6129 38.5985C30.1321 38.5985 30.6424 38.4586 31.0932 38.1927L39.4663 33.036L39.4894 38.0256ZM29.6129 35.6143L14.0001 26.0648L29.6129 16.4914L45.2257 26.0409L29.6129 35.6143Z" fill="var(--fill-0, #0088FF)"/>
</g>
</svg>
