<svg preserveAspectRatio="none" width="100%" height="100%" overflow="visible" style="display: block;" viewBox="0 0 19 23" fill="none" xmlns="http://www.w3.org/2000/svg">
<g id="Group">
<path id="Vector" d="M9.38571 22.5257L8.82257 22.1503C8.44714 21.8687 0 16.1434 0 9.38571C0 4.22357 4.22357 0 9.38571 0C14.5479 0 18.7714 4.22357 18.7714 9.38571C18.7714 16.1434 10.3243 21.8687 9.94886 22.1503L9.38571 22.5257ZM9.38571 1.87714C5.256 1.87714 1.87714 5.256 1.87714 9.38571C1.87714 14.2663 7.60243 18.8653 9.38571 20.2731C11.169 18.8653 16.8943 14.2663 16.8943 9.38571C16.8943 5.256 13.5154 1.87714 9.38571 1.87714ZM9.38571 13.14C7.32086 13.14 5.63143 11.4506 5.63143 9.38571C5.63143 7.32086 7.32086 5.63143 9.38571 5.63143C11.4506 5.63143 13.14 7.32086 13.14 9.38571C13.14 11.4506 11.4506 13.14 9.38571 13.14ZM9.38571 7.50857C8.35328 7.50857 7.50857 8.35329 7.50857 9.38571C7.50857 10.4181 8.35328 11.2629 9.38571 11.2629C10.4181 11.2629 11.2629 10.4181 11.2629 9.38571C11.2629 8.35329 10.4181 7.50857 9.38571 7.50857Z" fill="var(--fill-0, #CACACA)"/>
</g>
</svg>
