<svg preserveAspectRatio="none" width="100%" height="100%" overflow="visible" style="display: block;" viewBox="0 0 61 61" fill="none" xmlns="http://www.w3.org/2000/svg">
<g id="Frame 427319029">
<circle id="Ellipse 58" cx="30.2274" cy="30.2274" r="30.2274" fill="var(--fill-0, #D9E9F8)" fill-opacity="0.8"/>
<g id="calendar-svgrepo-com (12) 1">
<path id="Vector" d="M15 30C15 24.3431 15 21.5147 16.7574 19.7574C18.5147 18 21.3431 18 27 18H33C38.6568 18 41.4853 18 43.2426 19.7574C45 21.5147 45 24.3431 45 30V33C45 38.6568 45 41.4853 43.2426 43.2426C41.4853 45 38.6568 45 33 45H27C21.3431 45 18.5147 45 16.7574 43.2426C15 41.4853 15 38.6568 15 33V30Z" stroke="var(--stroke-0, #0088FF)" stroke-width="2.25"/>
<path id="Vector_2" d="M22.5 18V15.75" stroke="var(--stroke-0, #0088FF)" stroke-width="2.25" stroke-linecap="round"/>
<path id="Vector_3" d="M37.5 18V15.75" stroke="var(--stroke-0, #0088FF)" stroke-width="2.25" stroke-linecap="round"/>
<path id="Vector_4" d="M15.75 25.5H44.25" stroke="var(--stroke-0, #0088FF)" stroke-width="2.25" stroke-linecap="round"/>
<path id="Vector_5" d="M39 37.5C39 38.3284 38.3284 39 37.5 39C36.6716 39 36 38.3284 36 37.5C36 36.6716 36.6716 36 37.5 36C38.3284 36 39 36.6716 39 37.5Z" fill="var(--fill-0, #0088FF)"/>
<path id="Vector_6" d="M39 31.5C39 32.3284 38.3284 33 37.5 33C36.6716 33 36 32.3284 36 31.5C36 30.6716 36.6716 30 37.5 30C38.3284 30 39 30.6716 39 31.5Z" fill="var(--fill-0, #0088FF)"/>
<path id="Vector_7" d="M31.5 37.5C31.5 38.3284 30.8284 39 30 39C29.1716 39 28.5 38.3284 28.5 37.5C28.5 36.6716 29.1716 36 30 36C30.8284 36 31.5 36.6716 31.5 37.5Z" fill="var(--fill-0, #0088FF)"/>
<path id="Vector_8" d="M31.5 31.5C31.5 32.3284 30.8284 33 30 33C29.1716 33 28.5 32.3284 28.5 31.5C28.5 30.6716 29.1716 30 30 30C30.8284 30 31.5 30.6716 31.5 31.5Z" fill="var(--fill-0, #0088FF)"/>
<path id="Vector_9" d="M24 37.5C24 38.3284 23.3284 39 22.5 39C21.6716 39 21 38.3284 21 37.5C21 36.6716 21.6716 36 22.5 36C23.3284 36 24 36.6716 24 37.5Z" fill="var(--fill-0, #0088FF)"/>
<path id="Vector_10" d="M24 31.5C24 32.3284 23.3284 33 22.5 33C21.6716 33 21 32.3284 21 31.5C21 30.6716 21.6716 30 22.5 30C23.3284 30 24 30.6716 24 31.5Z" fill="var(--fill-0, #0088FF)"/>
</g>
</g>
</svg>
