<svg preserveAspectRatio="none" width="100%" height="100%" overflow="visible" style="display: block;" viewBox="0 0 60 48" fill="none" xmlns="http://www.w3.org/2000/svg">
<g id="Frame 427319048">
<path id="Union" d="M46.6304 31.6777C46.6304 34.1564 45.1584 36.3892 42.8794 37.3662C38.7805 39.123 34.3801 40.001 29.98 40.001C25.5801 40.0009 21.1799 39.1229 17.0815 37.3662C14.8025 36.3892 13.3306 34.1564 13.3306 31.6777V22.2744L26.4224 28.1709C27.5479 28.6792 28.7459 28.9375 29.9829 28.9375C31.2175 28.9375 32.4173 28.6791 33.5405 28.1709H33.5386L46.6304 22.2744V31.6777ZM27.4585 0.546875C29.0715 -0.18189 30.9262 -0.18189 32.5415 0.546875L52.73 9.64355C54.0806 10.2516 54.9185 11.5519 54.9185 13.0303C54.9183 14.5108 54.0802 15.808 52.7319 16.416L52.7349 16.4189L52.2827 16.6201V27.5791C53.0182 28.0085 53.519 28.798 53.519 29.71V30.9463C53.519 32.3133 52.4071 33.4229 51.0425 33.4229C49.6757 33.4226 48.5669 32.3108 48.5669 30.9463V29.71C48.5669 28.798 49.0676 28.0085 49.8032 27.5791V17.7363L32.5405 25.5137C31.733 25.878 30.8651 26.0596 29.9995 26.0596C29.1339 26.0595 28.2661 25.878 27.4585 25.5137L7.27002 16.418C5.91932 15.8099 5.08154 14.5106 5.08154 13.0322C5.08158 11.5517 5.91894 10.2546 7.26709 9.64648L27.4585 0.546875Z" fill="url(#paint0_linear_3_210)"/>
</g>
<defs>
<linearGradient id="paint0_linear_3_210" x1="35.9414" y1="46.4293" x2="42.8984" y2="9.80899" gradientUnits="userSpaceOnUse">
<stop/>
<stop offset="1" stop-color="#263952"/>
</linearGradient>
</defs>
</svg>
