<svg preserveAspectRatio="none" width="100%" height="100%" overflow="visible" style="display: block;" viewBox="0 0 24 28" fill="none" xmlns="http://www.w3.org/2000/svg">
<g id="Group">
<path id="Vector" d="M11.5678 27.7628L10.8738 27.3001C10.4111 26.9531 0 19.8967 0 11.5678C0 5.20553 5.20553 0 11.5678 0C17.9302 0 23.1357 5.20553 23.1357 11.5678C23.1357 19.8967 12.7246 26.9531 12.2619 27.3001L11.5678 27.7628ZM11.5678 2.31357C6.47799 2.31357 2.31357 6.47799 2.31357 11.5678C2.31357 17.5831 9.36995 23.2514 11.5678 24.9865C13.7657 23.2514 20.8221 17.5831 20.8221 11.5678C20.8221 6.47799 16.6577 2.31357 11.5678 2.31357ZM11.5678 16.195C9.02291 16.195 6.9407 14.1128 6.9407 11.5678C6.9407 9.02292 9.02291 6.9407 11.5678 6.9407C14.1128 6.9407 16.195 9.02292 16.195 11.5678C16.195 14.1128 14.1128 16.195 11.5678 16.195ZM11.5678 9.25427C10.2954 9.25427 9.25427 10.2954 9.25427 11.5678C9.25427 12.8403 10.2954 13.8814 11.5678 13.8814C12.8403 13.8814 13.8814 12.8403 13.8814 11.5678C13.8814 10.2954 12.8403 9.25427 11.5678 9.25427Z" fill="var(--fill-0, #0088FF)"/>
</g>
</svg>
